<?xml version="1.0" standalone="no"?>
<!DOCTYPE svg PUBLIC "-//W3C//DTD SVG 20010904//EN"
 "http://www.w3.org/TR/2001/REC-SVG-20010904/DTD/svg10.dtd">
<svg version="1.0" xmlns="http://www.w3.org/2000/svg"
 width="2617.000000pt" height="2617.000000pt" viewBox="0 0 2617.000000 2617.000000"
 preserveAspectRatio="xMidYMid meet">
<metadata>
Created by potrace 1.11, written by Peter Selinger 2001-2013
</metadata>
<g transform="translate(0.000000,2617.000000) scale(0.100000,-0.100000)"
fill="#000000" stroke="none">
<path d="M11967 26163 c-11 -3 -16 -11 -13 -18 3 -8 -3 -24 -13 -37 -48 -61
-54 -92 -57 -323 -3 -281 -10 -378 -35 -493 -46 -210 -149 -401 -335 -618 -52
-61 -166 -173 -224 -220 -19 -16 -41 -34 -48 -41 -31 -30 -183 -122 -240 -146
-34 -15 -101 -36 -149 -47 -47 -12 -108 -33 -135 -46 -58 -29 -110 -73 -102
-86 3 -5 -1 -19 -8 -31 -31 -49 -55 -155 -83 -368 -18 -137 -35 -205 -155
-619 -63 -219 -129 -492 -174 -725 -68 -349 -104 -541 -116 -620 -13 -80 -117
-504 -191 -775 -71 -261 -148 -490 -165 -490 -8 0 -45 15 -82 34 -52 26 -164
67 -179 66 -2 0 -4 0 -5 1 -19 6 -62 10 -153 15 -97 5 -121 3 -205 -19 -182
-48 -260 -102 -340 -234 -42 -70 -50 -112 -46 -263 5 -175 57 -376 196 -750
59 -158 176 -431 189 -440 4 -3 20 -30 35 -60 15 -30 38 -74 52 -97 l24 -42
-202 -101 c-112 -55 -232 -116 -268 -136 -117 -65 -215 -118 -237 -128 -13 -6
-23 -14 -23 -18 0 -5 -4 -8 -10 -8 -29 0 -512 -305 -750 -474 -240 -170 -595
-443 -717 -553 -17 -15 -55 -48 -84 -73 -29 -25 -57 -49 -63 -55 -176 -159
-254 -232 -417 -395 -220 -219 -365 -373 -498 -530 -36 -41 -72 -84 -82 -95
-129 -148 -332 -409 -493 -636 -52 -74 -108 -152 -124 -174 -34 -48 -252 -388
-276 -430 -9 -16 -29 -50 -45 -75 -15 -25 -41 -70 -58 -100 -16 -30 -46 -82
-65 -115 -132 -227 -330 -629 -469 -950 -178 -416 -387 -1039 -489 -1460 -35
-146 -68 -288 -74 -315 -2 -14 -14 -71 -25 -128 -26 -128 -32 -163 -51 -272
-11 -64 -15 -88 -30 -195 -7 -44 -14 -89 -16 -99 -2 -11 -6 -42 -9 -70 -3 -28
-8 -68 -10 -88 -12 -90 -15 -116 -20 -165 -3 -29 -7 -74 -10 -100 -3 -27 -7
-77 -10 -113 -2 -36 -7 -99 -11 -140 -11 -139 -13 -204 -19 -475 -6 -255 -8
-271 -27 -288 -11 -9 -27 -17 -34 -17 -8 0 -74 -28 -147 -63 -135 -65 -208
-121 -280 -218 -31 -41 -33 -56 -12 -95 8 -16 15 -37 15 -46 0 -34 73 -158
183 -308 201 -276 285 -427 327 -586 26 -99 25 -157 -2 -434 -16 -166 -26
-228 -38 -240 -66 -67 -267 -422 -334 -592 -55 -141 -118 -355 -132 -453 -3
-22 -7 -51 -10 -65 -37 -205 -17 -468 51 -662 61 -176 182 -360 312 -476 65
-58 186 -135 295 -187 79 -37 93 -48 126 -97 71 -107 269 -394 313 -455 53
-74 120 -118 210 -137 68 -15 250 -15 439 0 187 14 233 12 245 -11 5 -11 20
-35 33 -52 12 -17 22 -33 22 -36 0 -3 27 -45 60 -93 33 -49 64 -96 70 -104 61
-95 381 -529 424 -577 6 -6 22 -26 36 -44 44 -58 243 -295 305 -364 11 -12 58
-64 104 -116 102 -114 548 -558 651 -649 40 -36 78 -70 84 -75 33 -32 348
-294 446 -372 117 -91 300 -228 400 -299 122 -85 166 -116 195 -134 17 -11 37
-24 45 -30 265 -183 713 -441 1075 -619 191 -94 363 -173 500 -231 55 -23 114
-48 130 -55 172 -76 731 -270 960 -335 61 -17 133 -37 160 -45 28 -9 59 -17
70 -19 11 -2 54 -13 95 -24 268 -71 625 -142 980 -197 52 -8 177 -24 225 -30
28 -3 66 -7 85 -10 78 -10 128 -15 195 -20 39 -3 90 -7 115 -10 164 -20 428
-29 820 -29 351 0 498 4 705 20 33 2 89 6 125 9 73 6 158 14 210 20 19 2 62 7
95 10 33 4 71 8 85 10 14 2 63 9 110 15 47 5 94 12 105 14 11 2 40 7 65 10 25
3 56 8 70 11 201 35 304 55 475 89 157 32 426 99 645 161 147 41 482 146 525
164 11 5 61 23 110 41 178 63 517 199 650 260 208 96 268 124 435 209 151 76
350 182 442 236 30 17 261 155 298 177 19 12 134 87 254 167 258 171 245 163
265 178 9 6 90 67 181 134 136 101 311 239 449 354 47 39 287 250 341 299 72
67 479 474 550 551 438 472 877 1057 1197 1595 47 80 98 165 113 190 67 110
174 313 279 525 91 185 100 203 170 365 23 52 47 103 52 114 6 10 49 115 95
235 47 119 89 225 94 236 21 43 190 568 228 705 77 279 91 336 126 490 30 136
80 387 101 505 4 22 9 49 11 60 10 55 34 216 39 260 3 28 7 61 10 74 2 13 7
49 10 80 3 31 10 90 15 131 12 103 19 173 25 250 3 36 7 94 10 130 16 201 19
323 19 690 0 360 -6 593 -19 715 -2 22 -7 77 -10 123 -3 45 -8 96 -10 113 -2
16 -7 64 -10 107 -4 42 -9 79 -10 82 -2 3 -6 39 -10 80 -4 41 -8 82 -10 90 -3
18 -12 80 -20 135 -5 35 -36 234 -51 320 -2 17 -7 37 -10 46 -2 9 -7 34 -10
55 -2 21 -9 54 -14 74 -5 19 -12 49 -14 65 -3 17 -8 40 -11 53 -7 29 -13 60
-21 97 -11 56 -104 428 -114 459 -6 17 -26 87 -45 156 -90 317 -274 825 -413
1141 -118 268 -378 794 -422 854 -4 6 -21 35 -37 66 -87 159 -309 513 -472
751 -144 209 -470 632 -612 793 -14 17 -48 55 -74 85 -132 151 -239 265 -450
475 -127 127 -248 246 -270 265 -22 20 -69 62 -105 94 -486 439 -1042 845
-1615 1178 -130 76 -160 92 -331 185 -108 59 -380 194 -391 194 -5 0 -15 6
-23 14 -8 7 -26 16 -40 20 -14 4 -50 20 -80 36 -30 16 -58 29 -62 29 -4 0 -37
13 -72 30 -36 16 -94 41 -128 55 -35 15 -76 32 -93 39 -16 8 -61 26 -100 40
-38 15 -79 31 -90 36 -11 6 -110 42 -220 81 -110 39 -201 72 -203 74 -2 2 -10
32 -19 66 -16 68 -16 68 -28 114 -11 44 -96 268 -106 281 -4 5 -38 68 -75 140
-77 148 -230 414 -248 429 -6 6 -38 50 -71 99 -50 76 -60 101 -72 165 -24 138
-31 193 -38 321 -15 256 -19 316 -36 485 -9 99 -16 146 -24 175 -2 8 -7 29
-10 46 -15 93 -47 167 -93 215 -51 55 -130 112 -143 104 -4 -3 -47 -7 -96 -9
-144 -5 -274 -63 -398 -179 -27 -26 -57 -47 -66 -47 -11 0 -29 28 -53 81 -40
87 -93 225 -106 274 -4 17 -26 98 -48 180 -40 153 -45 175 -87 372 -38 181
-89 339 -141 438 -97 185 -187 290 -356 418 -79 59 -90 66 -235 148 -80 45
-96 58 -114 96 -12 24 -26 49 -33 56 -7 7 -29 41 -50 76 -60 98 -219 326 -284
406 -4 6 -17 26 -29 45 -12 20 -30 45 -40 57 -10 11 -65 80 -121 152 -57 72
-109 131 -116 131 -7 0 -21 9 -30 19 -25 27 -118 71 -150 71 -81 0 -85 48 -20
210 76 189 132 405 119 463 -2 12 -7 38 -10 57 -17 116 -49 205 -104 285 -86
127 -110 156 -201 245 -130 128 -207 200 -213 200 -4 0 -63 39 -132 86 -69 47
-129 84 -131 81 -3 -3 -22 2 -42 10 -35 15 -177 25 -215 16z"/>
</g>
</svg>
